<svg xmlns="http://www.w3.org/2000/svg" viewBox="0 0 200 200" width="200" height="200" role="img" aria-label="Argus — SSSEP code health auditor">

  <defs>
    <radialGradient id="bgGrad" cx="50%" cy="50%" r="50%">
      <stop offset="0%" stop-color="#025E8A"/>
      <stop offset="100%" stop-color="#013A58"/>
    </radialGradient>
    <radialGradient id="eyeGlow" cx="50%" cy="45%" r="65%">
      <stop offset="0%" stop-color="#00FFD4" stop-opacity="0.55"/>
      <stop offset="60%" stop-color="#00C8E8" stop-opacity="0.25"/>
      <stop offset="100%" stop-color="#00B4D8" stop-opacity="0"/>
    </radialGradient>
    <radialGradient id="ring1Grad" cx="50%" cy="40%" r="55%">
      <stop offset="0%" stop-color="#12D68A"/>
      <stop offset="100%" stop-color="#0A9E60"/>
    </radialGradient>
    <radialGradient id="ring2Grad" cx="50%" cy="40%" r="55%">
      <stop offset="0%" stop-color="#00D4C8"/>
      <stop offset="100%" stop-color="#00A89E"/>
    </radialGradient>
    <radialGradient id="ring3Grad" cx="50%" cy="40%" r="55%">
      <stop offset="0%" stop-color="#00AADD"/>
      <stop offset="100%" stop-color="#0077BB"/>
    </radialGradient>
    <radialGradient id="ring4Grad" cx="50%" cy="40%" r="55%">
      <stop offset="0%" stop-color="#2266DD"/>
      <stop offset="100%" stop-color="#0A44BB"/>
    </radialGradient>
  </defs>

  <!-- Minimal dark background — deep teal-navy, not black -->
  <circle cx="100" cy="100" r="100" fill="url(#bgGrad)"/>
  <circle cx="100" cy="100" r="98" fill="none" stroke="#00D4B0" stroke-width="1.5" opacity="0.5"/>

  <!-- Jewel glow — teal-green radiance -->
  <circle cx="100" cy="100" r="75" fill="url(#eyeGlow)"/>

  <!-- Feather barbs — vivid teal-cyan, 24 lines at 15° intervals -->
  <g stroke="#00D4B0" stroke-width="1.6" stroke-linecap="round" opacity="0.75">
    <line x1="100" y1="40" x2="100" y2="13" transform="rotate(0   100 100)"/>
    <line x1="100" y1="40" x2="100" y2="13" transform="rotate(15  100 100)"/>
    <line x1="100" y1="40" x2="100" y2="13" transform="rotate(30  100 100)"/>
    <line x1="100" y1="40" x2="100" y2="13" transform="rotate(45  100 100)"/>
    <line x1="100" y1="40" x2="100" y2="13" transform="rotate(60  100 100)"/>
    <line x1="100" y1="40" x2="100" y2="13" transform="rotate(75  100 100)"/>
    <line x1="100" y1="40" x2="100" y2="13" transform="rotate(90  100 100)"/>
    <line x1="100" y1="40" x2="100" y2="13" transform="rotate(105 100 100)"/>
    <line x1="100" y1="40" x2="100" y2="13" transform="rotate(120 100 100)"/>
    <line x1="100" y1="40" x2="100" y2="13" transform="rotate(135 100 100)"/>
    <line x1="100" y1="40" x2="100" y2="13" transform="rotate(150 100 100)"/>
    <line x1="100" y1="40" x2="100" y2="13" transform="rotate(165 100 100)"/>
    <line x1="100" y1="40" x2="100" y2="13" transform="rotate(180 100 100)"/>
    <line x1="100" y1="40" x2="100" y2="13" transform="rotate(195 100 100)"/>
    <line x1="100" y1="40" x2="100" y2="13" transform="rotate(210 100 100)"/>
    <line x1="100" y1="40" x2="100" y2="13" transform="rotate(225 100 100)"/>
    <line x1="100" y1="40" x2="100" y2="13" transform="rotate(240 100 100)"/>
    <line x1="100" y1="40" x2="100" y2="13" transform="rotate(255 100 100)"/>
    <line x1="100" y1="40" x2="100" y2="13" transform="rotate(270 100 100)"/>
    <line x1="100" y1="40" x2="100" y2="13" transform="rotate(285 100 100)"/>
    <line x1="100" y1="40" x2="100" y2="13" transform="rotate(300 100 100)"/>
    <line x1="100" y1="40" x2="100" y2="13" transform="rotate(315 100 100)"/>
    <line x1="100" y1="40" x2="100" y2="13" transform="rotate(330 100 100)"/>
    <line x1="100" y1="40" x2="100" y2="13" transform="rotate(345 100 100)"/>
  </g>

  <!-- Inner texture barbs — bright cyan, offset 7.5° -->
  <g stroke="#00EEDD" stroke-width="0.9" stroke-linecap="round" opacity="0.45">
    <line x1="100" y1="43" x2="100" y2="34" transform="rotate(7.5   100 100)"/>
    <line x1="100" y1="43" x2="100" y2="34" transform="rotate(22.5  100 100)"/>
    <line x1="100" y1="43" x2="100" y2="34" transform="rotate(37.5  100 100)"/>
    <line x1="100" y1="43" x2="100" y2="34" transform="rotate(52.5  100 100)"/>
    <line x1="100" y1="43" x2="100" y2="34" transform="rotate(67.5  100 100)"/>
    <line x1="100" y1="43" x2="100" y2="34" transform="rotate(82.5  100 100)"/>
    <line x1="100" y1="43" x2="100" y2="34" transform="rotate(97.5  100 100)"/>
    <line x1="100" y1="43" x2="100" y2="34" transform="rotate(112.5 100 100)"/>
    <line x1="100" y1="43" x2="100" y2="34" transform="rotate(127.5 100 100)"/>
    <line x1="100" y1="43" x2="100" y2="34" transform="rotate(142.5 100 100)"/>
    <line x1="100" y1="43" x2="100" y2="34" transform="rotate(157.5 100 100)"/>
    <line x1="100" y1="43" x2="100" y2="34" transform="rotate(172.5 100 100)"/>
    <line x1="100" y1="43" x2="100" y2="34" transform="rotate(187.5 100 100)"/>
    <line x1="100" y1="43" x2="100" y2="34" transform="rotate(202.5 100 100)"/>
    <line x1="100" y1="43" x2="100" y2="34" transform="rotate(217.5 100 100)"/>
    <line x1="100" y1="43" x2="100" y2="34" transform="rotate(232.5 100 100)"/>
    <line x1="100" y1="43" x2="100" y2="34" transform="rotate(247.5 100 100)"/>
    <line x1="100" y1="43" x2="100" y2="34" transform="rotate(262.5 100 100)"/>
    <line x1="100" y1="43" x2="100" y2="34" transform="rotate(277.5 100 100)"/>
    <line x1="100" y1="43" x2="100" y2="34" transform="rotate(292.5 100 100)"/>
    <line x1="100" y1="43" x2="100" y2="34" transform="rotate(307.5 100 100)"/>
    <line x1="100" y1="43" x2="100" y2="34" transform="rotate(322.5 100 100)"/>
    <line x1="100" y1="43" x2="100" y2="34" transform="rotate(337.5 100 100)"/>
    <line x1="100" y1="43" x2="100" y2="34" transform="rotate(352.5 100 100)"/>
  </g>

  <!-- Eye rings — vivid jewel palette, outside → inside -->
  <!-- Ring 1: brilliant emerald green -->
  <circle cx="100" cy="100" r="57" fill="url(#ring1Grad)"/>
  <!-- Ring 2: vivid teal -->
  <circle cx="100" cy="100" r="46" fill="url(#ring2Grad)"/>
  <!-- Ring 3: vivid peacock blue -->
  <circle cx="100" cy="100" r="35" fill="url(#ring3Grad)"/>
  <!-- Ring 4: sapphire blue -->
  <circle cx="100" cy="100" r="24" fill="url(#ring4Grad)"/>
  <!-- Gold ring -->
  <circle cx="100" cy="100" r="15" fill="#F5C518"/>
  <!-- Centre — deep ocean teal, no black -->
  <circle cx="100" cy="100" r="8"  fill="#013A58"/>

  <!-- Iris highlight -->
  <ellipse cx="103" cy="97" rx="2.8" ry="2.2" fill="rgba(255,255,255,0.85)"/>
  <!-- Secondary soft highlight -->
  <ellipse cx="97" cy="103" rx="1.2" ry="1" fill="rgba(255,255,255,0.25)"/>

</svg>
